<svg width="440" height="21" viewBox="0 0 440 21" fill="none" xmlns="http://www.w3.org/2000/svg">
<g clip-path="url(#clip0_10_1664)">
<path fill-rule="evenodd" clip-rule="evenodd" d="M15.6731 19.8057L8.6438 1.04807L8.64367 1.048C8.6183 0.981716 8.54391 0.94855 8.47757 0.974017L8.14146 1.10287C8.07512 1.12834 8.0421 1.20268 8.06747 1.26897L15.3942 19.9402C15.3991 19.9531 15.4039 19.9659 15.4086 19.9784C15.4616 20.12 15.5025 20.2291 15.6488 20.1731C15.795 20.117 15.7444 19.988 15.6879 19.8438C15.6829 19.8312 15.678 19.8185 15.6731 19.8057ZM14.6071 20.2577L5.57423 2.34966L5.57402 2.34955C5.54255 2.28576 5.56863 2.20873 5.63242 2.17727L5.95496 2.01757C6.01875 1.9861 6.09567 2.01212 6.12725 2.07572L9.0194 8.0356L14.8723 20.0977C14.8784 20.1099 14.8845 20.122 14.8905 20.1341C14.9604 20.2724 15.0228 20.3963 14.8823 20.4657C14.8261 20.4937 14.7841 20.4935 14.7499 20.4746C14.6986 20.4463 14.6643 20.3755 14.6247 20.2937C14.619 20.2819 14.6131 20.2699 14.6071 20.2577Z" fill="#29005F"/>
</g>
<g clip-path="url(#clip1_10_1664)">
<path fill-rule="evenodd" clip-rule="evenodd" d="M24.6479 0.998216L31.6788 19.7553L31.6789 19.7554C31.7043 19.8216 31.7787 19.8548 31.845 19.8293L32.1811 19.7004C32.2475 19.675 32.2805 19.6006 32.2551 19.5343L24.9268 0.863746C24.9218 0.850809 24.9171 0.838034 24.9124 0.825512C24.8593 0.68397 24.8184 0.574792 24.6722 0.630888C24.526 0.687005 24.5766 0.815988 24.6331 0.960176C24.6381 0.972753 24.643 0.985446 24.6479 0.998216ZM25.7139 0.546173L34.7483 18.4534L34.7485 18.4535C34.78 18.5173 34.7539 18.5944 34.6901 18.6258L34.3676 18.7856C34.3038 18.817 34.2269 18.791 34.1953 18.7274L31.3026 12.7678L25.4487 0.706168C25.4426 0.693958 25.4365 0.681831 25.4305 0.669813C25.3606 0.531436 25.2982 0.407582 25.4387 0.338151C25.4949 0.310168 25.5369 0.31038 25.5711 0.329262C25.6224 0.357596 25.6567 0.428319 25.6963 0.510159C25.702 0.521965 25.7079 0.534 25.7139 0.546173Z" fill="#29005F"/>
</g>
<g clip-path="url(#clip2_10_1664)">
<path fill-rule="evenodd" clip-rule="evenodd" d="M52.0075 19.8057L44.9782 1.04806L44.9781 1.048C44.9527 0.981715 44.8783 0.94855 44.812 0.974016L44.4759 1.10287C44.4095 1.12834 44.3765 1.20268 44.4019 1.26897L51.7286 19.9402C51.7335 19.9531 51.7383 19.9659 51.743 19.9784C51.796 20.12 51.8369 20.2291 51.9832 20.1731C52.1294 20.117 52.0788 19.988 52.0223 19.8438C52.0173 19.8312 52.0124 19.8185 52.0075 19.8057ZM50.9415 20.2577L41.9086 2.34966L41.9084 2.34955C41.877 2.28576 41.903 2.20873 41.9668 2.17727L42.2894 2.01757C42.3532 1.9861 42.4301 2.01212 42.4617 2.07572L45.3538 8.0356L51.2067 20.0977C51.2128 20.1099 51.2189 20.122 51.225 20.1341C51.2948 20.2724 51.3572 20.3963 51.2167 20.4657C51.1605 20.4937 51.1185 20.4935 51.0843 20.4746C51.033 20.4463 50.9987 20.3755 50.9591 20.2937C50.9534 20.2819 50.9476 20.2699 50.9415 20.2577Z" fill="#29005F"/>
</g>
<g clip-path="url(#clip3_10_1664)">
<path fill-rule="evenodd" clip-rule="evenodd" d="M59.9153 0.998245L66.9461 19.7553L66.9463 19.7554C66.9717 19.8217 67.046 19.8548 67.1124 19.8294L67.4485 19.7005C67.5148 19.675 67.5478 19.6007 67.5225 19.5344L60.1942 0.863773C60.1892 0.850836 60.1844 0.83806 60.1797 0.825538C60.1267 0.683997 60.0858 0.57482 59.9396 0.630916C59.7933 0.687033 59.8439 0.816016 59.9005 0.960204C59.9054 0.972781 59.9104 0.985474 59.9153 0.998245ZM60.9812 0.546201L70.0156 18.4535L70.0158 18.4536C70.0473 18.5174 70.0212 18.5944 69.9574 18.6259L69.6349 18.7856C69.5711 18.8171 69.4942 18.791 69.4626 18.7274L66.57 12.7678L60.716 0.706196C60.71 0.693985 60.7039 0.681858 60.6978 0.669841C60.628 0.531463 60.5655 0.407609 60.706 0.33818C60.7623 0.310196 60.8042 0.310408 60.8384 0.32929C60.8897 0.357626 60.924 0.428349 60.9637 0.510192C60.9694 0.521995 60.9752 0.534029 60.9812 0.546201Z" fill="#29005F"/>
</g>
<g clip-path="url(#clip4_10_1664)">
<path fill-rule="evenodd" clip-rule="evenodd" d="M88.3419 19.8057L81.3126 1.04807L81.3125 1.04801C81.2871 0.981721 81.2127 0.948556 81.1464 0.974022L80.8103 1.10288C80.7439 1.12835 80.7109 1.20269 80.7363 1.26898L88.063 19.9402C88.0679 19.9531 88.0727 19.9659 88.0774 19.9784C88.1304 20.12 88.1713 20.2292 88.3176 20.1731C88.4638 20.117 88.4132 19.988 88.3567 19.8438C88.3517 19.8312 88.3468 19.8185 88.3419 19.8057ZM87.2759 20.2577L78.243 2.34966L78.2428 2.34955C78.2113 2.28577 78.2374 2.20874 78.3012 2.17727L78.6237 2.01757C78.6875 1.98611 78.7645 2.01213 78.796 2.07572L81.6882 8.03561L87.5411 20.0977C87.5472 20.1099 87.5533 20.1221 87.5593 20.1341C87.6291 20.2725 87.6916 20.3963 87.5511 20.4657C87.4949 20.4937 87.4529 20.4935 87.4187 20.4746C87.3674 20.4463 87.3331 20.3755 87.2935 20.2937C87.2878 20.2819 87.2819 20.2699 87.2759 20.2577Z" fill="#29005F"/>
</g>
<g clip-path="url(#clip5_10_1664)">
<path fill-rule="evenodd" clip-rule="evenodd" d="M97.3167 0.998222L104.348 19.7553L104.348 19.7554C104.373 19.8217 104.447 19.8548 104.514 19.8293L104.85 19.7005C104.916 19.675 104.949 19.6006 104.924 19.5343L97.5956 0.863752C97.5906 0.850814 97.5858 0.838038 97.5811 0.825515C97.5281 0.683976 97.4872 0.574799 97.341 0.630893C97.1947 0.687012 97.2453 0.815996 97.3019 0.960185C97.3068 0.972761 97.3118 0.985452 97.3167 0.998222ZM98.3826 0.546179L107.417 18.4534L107.417 18.4536C107.449 18.5173 107.423 18.5944 107.359 18.6258L107.036 18.7856C106.973 18.817 106.896 18.791 106.864 18.7274L103.971 12.7678L98.1175 0.706175C98.1114 0.693963 98.1053 0.681836 98.0992 0.669819C98.0294 0.531441 97.9669 0.407587 98.1074 0.338158C98.1637 0.310174 98.2056 0.310386 98.2398 0.329268C98.2912 0.357604 98.3254 0.428327 98.3651 0.51017C98.3708 0.521973 98.3766 0.534007 98.3826 0.546179Z" fill="#29005F"/>
</g>
<g clip-path="url(#clip6_10_1664)">
<path fill-rule="evenodd" clip-rule="evenodd" d="M124.676 19.8058L117.647 1.04808L117.647 1.04801C117.621 0.981729 117.547 0.948563 117.481 0.97403L117.145 1.10289C117.078 1.12835 117.045 1.2027 117.071 1.26898L124.397 19.9402C124.402 19.9531 124.407 19.9659 124.412 19.9784C124.465 20.12 124.506 20.2292 124.652 20.1731C124.798 20.117 124.748 19.988 124.691 19.8438C124.686 19.8312 124.681 19.8185 124.676 19.8058ZM123.61 20.2577L114.577 2.34967L114.577 2.34956C114.546 2.28577 114.572 2.20875 114.636 2.17728L114.958 2.01758C115.022 1.98611 115.099 2.01214 115.13 2.07573L118.023 8.03561L123.875 20.0977C123.882 20.1099 123.888 20.1221 123.894 20.1341C123.963 20.2725 124.026 20.3963 123.885 20.4657C123.829 20.4937 123.787 20.4935 123.753 20.4746C123.702 20.4463 123.667 20.3756 123.628 20.2937C123.622 20.2819 123.616 20.2699 123.61 20.2577Z" fill="#29005F"/>
</g>
<g clip-path="url(#clip7_10_1664)">
<path fill-rule="evenodd" clip-rule="evenodd" d="M133.651 0.998216L140.682 19.7553L140.682 19.7554C140.707 19.8216 140.782 19.8548 140.848 19.8293L141.184 19.7004C141.251 19.675 141.284 19.6006 141.258 19.5343L133.93 0.863745C133.925 0.850808 133.92 0.838033 133.916 0.825511C133.862 0.683969 133.822 0.574791 133.675 0.630887C133.529 0.687005 133.58 0.815989 133.636 0.960179C133.641 0.972754 133.646 0.985446 133.651 0.998216ZM134.717 0.546173L143.751 18.4534L143.752 18.4535C143.783 18.5173 143.757 18.5944 143.693 18.6258L143.371 18.7856C143.307 18.817 143.23 18.791 143.198 18.7274L140.306 12.7678L134.452 0.706168C134.446 0.693958 134.44 0.681831 134.434 0.669813C134.364 0.531436 134.301 0.407582 134.442 0.338151C134.498 0.310167 134.54 0.31038 134.574 0.329262C134.626 0.357596 134.66 0.428319 134.699 0.510159C134.705 0.521965 134.711 0.534 134.717 0.546173Z" fill="#29005F"/>
</g>
<g clip-path="url(#clip8_10_1664)">
<path fill-rule="evenodd" clip-rule="evenodd" d="M161.011 19.8058L153.981 1.04808L153.981 1.04802C153.956 0.981734 153.882 0.948569 153.815 0.974035L153.479 1.10289C153.413 1.12836 153.38 1.2027 153.405 1.26899L160.732 19.9402C160.737 19.9531 160.742 19.9659 160.746 19.9784C160.799 20.12 160.84 20.2292 160.986 20.1731C161.133 20.117 161.082 19.988 161.025 19.8438C161.021 19.8312 161.016 19.8185 161.011 19.8058ZM159.945 20.2577L150.912 2.34968L150.912 2.34957C150.88 2.28578 150.906 2.20875 150.97 2.17728L151.293 2.01759C151.356 1.98612 151.433 2.01214 151.465 2.07574L154.357 8.03562L160.21 20.0977C160.216 20.1099 160.222 20.1221 160.228 20.1341C160.298 20.2725 160.36 20.3963 160.22 20.4657C160.164 20.4937 160.122 20.4935 160.087 20.4746C160.036 20.4463 160.002 20.3756 159.962 20.2937C159.957 20.2819 159.951 20.2699 159.945 20.2577Z" fill="#29005F"/>
</g>
<g clip-path="url(#clip9_10_1664)">
<path fill-rule="evenodd" clip-rule="evenodd" d="M169.986 0.998248L177.016 19.7553L177.017 19.7554C177.042 19.8217 177.116 19.8548 177.183 19.8294L177.519 19.7005C177.585 19.675 177.618 19.6007 177.593 19.5344L170.264 0.863777C170.259 0.85084 170.255 0.838065 170.25 0.825543C170.197 0.684001 170.156 0.574824 170.01 0.630919C169.864 0.687037 169.914 0.816022 169.971 0.960211C169.976 0.972786 169.981 0.985478 169.986 0.998248ZM171.051 0.546205L180.086 18.4535L180.086 18.4536C180.118 18.5174 180.091 18.5944 180.028 18.6259L179.705 18.7856C179.641 18.8171 179.564 18.791 179.533 18.7275L176.64 12.7678L170.786 0.7062C170.78 0.693989 170.774 0.681862 170.768 0.669845C170.698 0.531468 170.636 0.407613 170.776 0.338183C170.832 0.3102 170.874 0.310411 170.909 0.329293C170.96 0.357628 170.994 0.428351 171.034 0.510191C171.04 0.521996 171.045 0.534032 171.051 0.546205Z" fill="#29005F"/>
</g>
<g clip-path="url(#clip10_10_1664)">
<path fill-rule="evenodd" clip-rule="evenodd" d="M197.345 19.8057L190.316 1.04807L190.316 1.04801C190.29 0.981722 190.216 0.948557 190.15 0.974023L189.813 1.10288C189.747 1.12835 189.714 1.20269 189.739 1.26898L197.066 19.9402C197.071 19.9531 197.076 19.9659 197.081 19.9784C197.134 20.12 197.174 20.2292 197.321 20.1731C197.467 20.117 197.416 19.988 197.36 19.8438C197.355 19.8312 197.35 19.8185 197.345 19.8057ZM196.279 20.2577L187.246 2.34966L187.246 2.34955C187.215 2.28577 187.241 2.20874 187.304 2.17727L187.627 2.01757C187.691 1.98611 187.768 2.01213 187.799 2.07572L190.691 8.03561L196.544 20.0977C196.55 20.1099 196.556 20.1221 196.563 20.1341C196.632 20.2725 196.695 20.3963 196.554 20.4657C196.498 20.4937 196.456 20.4935 196.422 20.4746C196.371 20.4463 196.336 20.3755 196.297 20.2937C196.291 20.2819 196.285 20.2699 196.279 20.2577Z" fill="#29005F"/>
</g>
<g clip-path="url(#clip11_10_1664)">
<path fill-rule="evenodd" clip-rule="evenodd" d="M205.253 0.998223L212.284 19.7553L212.284 19.7554C212.309 19.8217 212.384 19.8548 212.45 19.8293L212.786 19.7005C212.852 19.675 212.885 19.6006 212.86 19.5344L205.532 0.863753C205.527 0.850817 205.522 0.838042 205.517 0.825519C205.464 0.683978 205.423 0.574799 205.277 0.630895C205.131 0.687013 205.181 0.815997 205.238 0.960186C205.243 0.972762 205.248 0.985454 205.253 0.998223ZM206.319 0.546182L215.353 18.4534L215.353 18.4536C215.385 18.5173 215.359 18.5944 215.295 18.6258L214.973 18.7856C214.909 18.817 214.832 18.791 214.8 18.7274L211.908 12.7678L206.054 0.706176C206.048 0.693966 206.041 0.681839 206.035 0.669822C205.966 0.531445 205.903 0.40759 206.044 0.33816C206.1 0.310176 206.142 0.310388 206.176 0.32927C206.227 0.357605 206.262 0.428328 206.301 0.510168C206.307 0.521973 206.313 0.534009 206.319 0.546182Z" fill="#29005F"/>
</g>
<g clip-path="url(#clip12_10_1664)">
<path fill-rule="evenodd" clip-rule="evenodd" d="M233.679 19.8057L226.65 1.04807L226.65 1.04801C226.625 0.981721 226.55 0.948556 226.484 0.974022L226.148 1.10288C226.082 1.12835 226.048 1.20269 226.074 1.26898L233.401 19.9402C233.406 19.9531 233.41 19.9659 233.415 19.9784C233.468 20.12 233.509 20.2292 233.655 20.1731C233.801 20.117 233.751 19.988 233.694 19.8438C233.689 19.8312 233.684 19.8185 233.679 19.8057ZM232.614 20.2577L223.581 2.34966L223.58 2.34955C223.549 2.28577 223.575 2.20874 223.639 2.17727L223.961 2.01757C224.025 1.98611 224.102 2.01213 224.134 2.07572L227.026 8.03561L232.879 20.0977C232.885 20.1099 232.891 20.1221 232.897 20.1341C232.967 20.2725 233.029 20.3963 232.889 20.4657C232.832 20.4937 232.79 20.4935 232.756 20.4746C232.705 20.4463 232.671 20.3755 232.631 20.2937C232.625 20.2819 232.62 20.2699 232.614 20.2577Z" fill="#29005F"/>
</g>
<g clip-path="url(#clip13_10_1664)">
<path fill-rule="evenodd" clip-rule="evenodd" d="M242.654 0.998248L249.685 19.7553L249.685 19.7554C249.711 19.8217 249.785 19.8548 249.851 19.8294L250.187 19.7005C250.254 19.675 250.287 19.6007 250.261 19.5344L242.933 0.863777C242.928 0.85084 242.923 0.838063 242.919 0.825541C242.866 0.684001 242.825 0.574825 242.679 0.630919C242.532 0.687037 242.583 0.816022 242.639 0.960211C242.644 0.972786 242.649 0.985478 242.654 0.998248ZM243.72 0.546205L252.755 18.4535L252.755 18.4536C252.786 18.5174 252.76 18.5944 252.696 18.6259L252.374 18.7856C252.31 18.8171 252.233 18.791 252.202 18.7275L249.309 12.7678L243.455 0.7062C243.449 0.693989 243.443 0.681862 243.437 0.669845C243.367 0.531467 243.304 0.407613 243.445 0.338184C243.501 0.3102 243.543 0.310412 243.577 0.329294C243.629 0.35763 243.663 0.428352 243.703 0.510196C243.708 0.521999 243.714 0.534033 243.72 0.546205Z" fill="#29005F"/>
</g>
<g clip-path="url(#clip14_10_1664)">
<path fill-rule="evenodd" clip-rule="evenodd" d="M270.014 19.8057L262.985 1.04807L262.984 1.04801C262.959 0.981725 262.885 0.94856 262.818 0.974026L262.482 1.10288C262.416 1.12835 262.383 1.20269 262.408 1.26898L269.735 19.9402C269.74 19.9531 269.745 19.9659 269.749 19.9784C269.802 20.12 269.843 20.2292 269.989 20.1731C270.136 20.117 270.085 19.988 270.029 19.8438C270.024 19.8312 270.019 19.8185 270.014 19.8057ZM268.948 20.2577L259.915 2.34965L259.915 2.34954C259.883 2.28575 259.909 2.20873 259.973 2.17726L260.296 2.01756C260.359 1.98609 260.436 2.01212 260.468 2.07571L263.36 8.03559L269.213 20.0977C269.219 20.1099 269.225 20.122 269.231 20.1341C269.301 20.2724 269.364 20.3963 269.223 20.4657C269.167 20.4937 269.125 20.4935 269.091 20.4746C269.039 20.4463 269.005 20.3755 268.965 20.2937C268.96 20.2819 268.954 20.2698 268.948 20.2577Z" fill="#29005F"/>
</g>
<g clip-path="url(#clip15_10_1664)">
<path fill-rule="evenodd" clip-rule="evenodd" d="M278.989 0.998222L286.02 19.7553L286.02 19.7554C286.045 19.8217 286.119 19.8548 286.186 19.8293L286.522 19.7005C286.588 19.675 286.621 19.6006 286.596 19.5343L279.268 0.863752C279.263 0.850815 279.258 0.838039 279.253 0.825517C279.2 0.683976 279.159 0.574798 279.013 0.630893C278.867 0.687011 278.917 0.815994 278.974 0.960181C278.979 0.972759 278.984 0.985452 278.989 0.998222ZM280.055 0.546179L289.089 18.4534L289.089 18.4536C289.121 18.5173 289.095 18.5944 289.031 18.6258L288.708 18.7856C288.645 18.817 288.568 18.791 288.536 18.7274L285.643 12.7678L279.789 0.706174C279.783 0.693963 279.777 0.681836 279.771 0.669819C279.701 0.531442 279.639 0.407587 279.779 0.338157C279.836 0.310173 279.878 0.310386 279.912 0.329267C279.963 0.357602 279.997 0.428325 280.037 0.510165C280.043 0.52197 280.049 0.534006 280.055 0.546179Z" fill="#29005F"/>
</g>
<g clip-path="url(#clip16_10_1664)">
<path fill-rule="evenodd" clip-rule="evenodd" d="M306.348 19.8057L299.319 1.04806L299.319 1.048C299.293 0.981709 299.219 0.948544 299.153 0.97401L298.817 1.10287C298.75 1.12833 298.717 1.20268 298.743 1.26897L306.069 19.9402C306.074 19.9531 306.079 19.9659 306.084 19.9784C306.137 20.12 306.178 20.2291 306.324 20.1731C306.47 20.117 306.42 19.988 306.363 19.8438C306.358 19.8312 306.353 19.8185 306.348 19.8057ZM305.282 20.2577L296.249 2.34965L296.249 2.34954C296.218 2.28575 296.244 2.20873 296.308 2.17726L296.63 2.01756C296.694 1.98609 296.771 2.01212 296.802 2.07571L299.695 8.03559L305.547 20.0977C305.553 20.1099 305.56 20.122 305.566 20.1341C305.635 20.2724 305.698 20.3963 305.557 20.4657C305.501 20.4937 305.459 20.4935 305.425 20.4746C305.374 20.4463 305.339 20.3755 305.3 20.2937C305.294 20.2819 305.288 20.2698 305.282 20.2577Z" fill="#29005F"/>
</g>
<g clip-path="url(#clip17_10_1664)">
<path fill-rule="evenodd" clip-rule="evenodd" d="M315.323 0.998223L322.354 19.7553L322.354 19.7554C322.379 19.8217 322.454 19.8548 322.52 19.8293L322.856 19.7005C322.923 19.675 322.956 19.6006 322.93 19.5343L315.602 0.863752C315.597 0.850815 315.592 0.838038 315.588 0.825516C315.534 0.683976 315.494 0.574799 315.347 0.630894C315.201 0.687012 315.252 0.815995 315.308 0.960182C315.313 0.97276 315.318 0.985452 315.323 0.998223ZM316.389 0.54618L325.423 18.4534L325.424 18.4536C325.455 18.5173 325.429 18.5944 325.365 18.6258L325.043 18.7856C324.979 18.817 324.902 18.791 324.87 18.7274L321.978 12.7678L316.124 0.706175C316.118 0.693964 316.112 0.681837 316.106 0.66982C316.036 0.531443 315.973 0.407588 316.114 0.338158C316.17 0.310174 316.212 0.310386 316.246 0.329268C316.298 0.357603 316.332 0.428326 316.371 0.510166C316.377 0.521971 316.383 0.534007 316.389 0.54618Z" fill="#29005F"/>
</g>
<g clip-path="url(#clip18_10_1664)">
<path fill-rule="evenodd" clip-rule="evenodd" d="M342.683 19.8057L335.653 1.04806L335.653 1.04799C335.628 0.981708 335.553 0.948543 335.487 0.974009L335.151 1.10287C335.085 1.12833 335.052 1.20268 335.077 1.26896L342.404 19.9402C342.409 19.9531 342.413 19.9659 342.418 19.9784C342.471 20.12 342.512 20.2291 342.658 20.1731C342.805 20.117 342.754 19.988 342.697 19.8438C342.692 19.8312 342.688 19.8185 342.683 19.8057ZM341.617 20.2577L332.584 2.34965L332.584 2.34954C332.552 2.28575 332.578 2.20873 332.642 2.17726L332.965 2.01756C333.028 1.98609 333.105 2.01212 333.137 2.07571L336.029 8.03559L341.882 20.0977C341.888 20.1099 341.894 20.122 341.9 20.1341C341.97 20.2724 342.032 20.3963 341.892 20.4657C341.836 20.4937 341.794 20.4935 341.759 20.4746C341.708 20.4463 341.674 20.3755 341.634 20.2937C341.629 20.2819 341.623 20.2698 341.617 20.2577Z" fill="#29005F"/>
</g>
<g clip-path="url(#clip19_10_1664)">
<path fill-rule="evenodd" clip-rule="evenodd" d="M351.658 0.998222L358.688 19.7553L358.689 19.7554C358.714 19.8217 358.788 19.8548 358.855 19.8293L359.191 19.7005C359.257 19.675 359.29 19.6006 359.265 19.5343L351.936 0.863751C351.931 0.850814 351.927 0.838038 351.922 0.825515C351.869 0.683975 351.828 0.574798 351.682 0.630893C351.536 0.687011 351.586 0.815994 351.643 0.960181C351.648 0.972759 351.653 0.985451 351.658 0.998222ZM352.723 0.54618L361.758 18.4534L361.758 18.4536C361.79 18.5173 361.763 18.5944 361.7 18.6258L361.377 18.7856C361.313 18.817 361.236 18.791 361.205 18.7274L358.312 12.7678L352.458 0.706175C352.452 0.693964 352.446 0.681837 352.44 0.66982C352.37 0.531443 352.308 0.407588 352.448 0.338158C352.504 0.310174 352.546 0.310386 352.581 0.329268C352.632 0.357603 352.666 0.428326 352.706 0.510166C352.712 0.521971 352.717 0.534007 352.723 0.54618Z" fill="#29005F"/>
</g>
<g clip-path="url(#clip20_10_1664)">
<path fill-rule="evenodd" clip-rule="evenodd" d="M379.017 19.8057L371.988 1.04807L371.988 1.04801C371.962 0.981721 371.888 0.948556 371.822 0.974022L371.485 1.10288C371.419 1.12835 371.386 1.20269 371.411 1.26898L378.738 19.9402C378.743 19.9531 378.748 19.9659 378.753 19.9784C378.806 20.12 378.847 20.2292 378.993 20.1731C379.139 20.117 379.088 19.988 379.032 19.8438C379.027 19.8312 379.022 19.8185 379.017 19.8057ZM377.951 20.2577L368.918 2.34966L368.918 2.34955C368.887 2.28577 368.913 2.20874 368.976 2.17727L369.299 2.01757C369.363 1.98611 369.44 2.01213 369.471 2.07572L372.363 8.03561L378.216 20.0977C378.222 20.1099 378.228 20.1221 378.235 20.1341C378.304 20.2725 378.367 20.3963 378.226 20.4657C378.17 20.4937 378.128 20.4935 378.094 20.4746C378.043 20.4463 378.008 20.3755 377.969 20.2937C377.963 20.2819 377.957 20.2699 377.951 20.2577Z" fill="#29005F"/>
</g>
<g clip-path="url(#clip21_10_1664)">
<path fill-rule="evenodd" clip-rule="evenodd" d="M387.992 0.998223L395.023 19.7553L395.023 19.7554C395.048 19.8217 395.123 19.8548 395.189 19.8293L395.525 19.7005C395.591 19.675 395.625 19.6006 395.599 19.5343L388.271 0.863752C388.266 0.850815 388.261 0.838038 388.256 0.825516C388.203 0.683976 388.162 0.574799 388.016 0.630894C387.87 0.687012 387.921 0.815995 387.977 0.960182C387.982 0.97276 387.987 0.985452 387.992 0.998223ZM389.058 0.54618L398.092 18.4534L398.093 18.4536C398.124 18.5173 398.098 18.5944 398.034 18.6258L397.712 18.7856C397.648 18.817 397.571 18.791 397.539 18.7274L394.647 12.7678L388.793 0.706175C388.787 0.693964 388.781 0.681837 388.774 0.66982C388.705 0.531443 388.642 0.407588 388.783 0.338158C388.839 0.310174 388.881 0.310386 388.915 0.329268C388.966 0.357603 389.001 0.428326 389.04 0.510166C389.046 0.521971 389.052 0.534007 389.058 0.54618Z" fill="#29005F"/>
</g>
<g clip-path="url(#clip22_10_1664)">
<path fill-rule="evenodd" clip-rule="evenodd" d="M415.351 19.8057L408.322 1.04806L408.322 1.048C408.297 0.981709 408.222 0.948544 408.156 0.97401L407.82 1.10287C407.754 1.12833 407.72 1.20268 407.746 1.26897L415.073 19.9402C415.078 19.9531 415.082 19.9659 415.087 19.9784C415.14 20.12 415.181 20.2291 415.327 20.1731C415.473 20.117 415.423 19.988 415.366 19.8438C415.361 19.8312 415.356 19.8185 415.351 19.8057ZM414.286 20.2577L405.253 2.34965L405.252 2.34954C405.221 2.28575 405.247 2.20873 405.311 2.17726L405.633 2.01756C405.697 1.98609 405.774 2.01212 405.806 2.07571L408.698 8.03559L414.551 20.0977C414.557 20.1099 414.563 20.122 414.569 20.1341C414.639 20.2724 414.701 20.3963 414.561 20.4657C414.504 20.4937 414.463 20.4935 414.428 20.4746C414.377 20.4463 414.343 20.3755 414.303 20.2937C414.297 20.2819 414.292 20.2698 414.286 20.2577Z" fill="#29005F"/>
</g>
<g clip-path="url(#clip23_10_1664)">
<path fill-rule="evenodd" clip-rule="evenodd" d="M424.326 0.99821L431.357 19.7553L431.357 19.7554C431.383 19.8216 431.457 19.8548 431.523 19.8293L431.859 19.7004C431.926 19.675 431.959 19.6006 431.933 19.5343L424.605 0.863739C424.6 0.850802 424.595 0.838026 424.591 0.825503C424.538 0.683963 424.497 0.574786 424.351 0.630881C424.204 0.686999 424.255 0.815982 424.311 0.960169C424.316 0.972747 424.321 0.985439 424.326 0.99821ZM425.392 0.546167L434.427 18.4534L434.427 18.4535C434.458 18.5173 434.432 18.5944 434.368 18.6258L434.046 18.7856C433.982 18.817 433.905 18.791 433.874 18.7274L430.981 12.7678L425.127 0.706162C425.121 0.693951 425.115 0.681824 425.109 0.669807C425.039 0.531429 424.977 0.407575 425.117 0.338145C425.173 0.310161 425.215 0.310374 425.249 0.329256C425.301 0.357592 425.335 0.428314 425.375 0.510157C425.38 0.521961 425.386 0.533995 425.392 0.546167Z" fill="#29005F"/>
</g>
<defs>
<clipPath id="clip0_10_1664">
<rect width="17.5303" height="14.0853" fill="white" transform="translate(6.8082) rotate(28.9048)"/>
</clipPath>
<clipPath id="clip1_10_1664">
<rect width="17.5303" height="14.0853" fill="white" transform="translate(33.5145 20.8032) rotate(-151.1)"/>
</clipPath>
<clipPath id="clip2_10_1664">
<rect width="17.5303" height="14.0853" fill="white" transform="translate(43.1426) rotate(28.9048)"/>
</clipPath>
<clipPath id="clip3_10_1664">
<rect width="17.5303" height="14.0853" fill="white" transform="translate(69.8489 20.8032) rotate(-151.1)"/>
</clipPath>
<clipPath id="clip4_10_1664">
<rect width="17.5303" height="14.0853" fill="white" transform="translate(79.477) rotate(28.9048)"/>
</clipPath>
<clipPath id="clip5_10_1664">
<rect width="17.5303" height="14.0853" fill="white" transform="translate(106.183 20.8032) rotate(-151.1)"/>
</clipPath>
<clipPath id="clip6_10_1664">
<rect width="17.5303" height="14.0853" fill="white" transform="translate(115.811) rotate(28.9048)"/>
</clipPath>
<clipPath id="clip7_10_1664">
<rect width="17.5303" height="14.0853" fill="white" transform="translate(142.518 20.8032) rotate(-151.1)"/>
</clipPath>
<clipPath id="clip8_10_1664">
<rect width="17.5303" height="14.0853" fill="white" transform="translate(152.146) rotate(28.9048)"/>
</clipPath>
<clipPath id="clip9_10_1664">
<rect width="17.5303" height="14.0853" fill="white" transform="translate(178.852 20.8032) rotate(-151.1)"/>
</clipPath>
<clipPath id="clip10_10_1664">
<rect width="17.5303" height="14.0853" fill="white" transform="translate(188.48) rotate(28.9048)"/>
</clipPath>
<clipPath id="clip11_10_1664">
<rect width="17.5303" height="14.0853" fill="white" transform="translate(215.186 20.8032) rotate(-151.1)"/>
</clipPath>
<clipPath id="clip12_10_1664">
<rect width="17.5303" height="14.0853" fill="white" transform="translate(224.815) rotate(28.9048)"/>
</clipPath>
<clipPath id="clip13_10_1664">
<rect width="17.5303" height="14.0853" fill="white" transform="translate(251.521 20.8032) rotate(-151.1)"/>
</clipPath>
<clipPath id="clip14_10_1664">
<rect width="17.5303" height="14.0853" fill="white" transform="translate(261.149) rotate(28.9048)"/>
</clipPath>
<clipPath id="clip15_10_1664">
<rect width="17.5303" height="14.0853" fill="white" transform="translate(287.855 20.8032) rotate(-151.1)"/>
</clipPath>
<clipPath id="clip16_10_1664">
<rect width="17.5303" height="14.0853" fill="white" transform="translate(297.483) rotate(28.9048)"/>
</clipPath>
<clipPath id="clip17_10_1664">
<rect width="17.5303" height="14.0853" fill="white" transform="translate(324.19 20.8032) rotate(-151.1)"/>
</clipPath>
<clipPath id="clip18_10_1664">
<rect width="17.5303" height="14.0853" fill="white" transform="translate(333.818) rotate(28.9048)"/>
</clipPath>
<clipPath id="clip19_10_1664">
<rect width="17.5303" height="14.0853" fill="white" transform="translate(360.524 20.8032) rotate(-151.1)"/>
</clipPath>
<clipPath id="clip20_10_1664">
<rect width="17.5303" height="14.0853" fill="white" transform="translate(370.152) rotate(28.9048)"/>
</clipPath>
<clipPath id="clip21_10_1664">
<rect width="17.5303" height="14.0853" fill="white" transform="translate(396.859 20.8032) rotate(-151.1)"/>
</clipPath>
<clipPath id="clip22_10_1664">
<rect width="17.5303" height="14.0853" fill="white" transform="translate(406.487) rotate(28.9048)"/>
</clipPath>
<clipPath id="clip23_10_1664">
<rect width="17.5303" height="14.0853" fill="white" transform="translate(433.193 20.8032) rotate(-151.1)"/>
</clipPath>
</defs>
</svg>
