<svg width="170" height="104" viewBox="0 0 170 104" fill="none" xmlns="http://www.w3.org/2000/svg">
<g clip-path="url(#clip0_202_240)">
<path fill-rule="evenodd" clip-rule="evenodd" d="M77.8856 98.4225L42.9545 5.20828L42.9539 5.20797C42.8278 4.87857 42.4582 4.71376 42.1285 4.84031L40.4582 5.48065C40.1285 5.60721 39.9645 5.97664 40.0905 6.30605L76.4998 99.0906C76.5245 99.1549 76.5482 99.2184 76.5715 99.2806C76.835 99.984 77.0382 100.527 77.7649 100.248C78.4917 99.969 78.2403 99.328 77.9592 98.6115C77.9347 98.549 77.91 98.4859 77.8856 98.4225ZM72.5886 100.668L27.7006 11.6764L27.6995 11.6758C27.5431 11.3589 27.6727 10.9761 27.9897 10.8197L29.5925 10.0261C29.9095 9.86974 30.2918 9.99906 30.4487 10.3151L44.8209 39.9321L73.9064 99.8734C73.9364 99.9341 73.9668 99.9943 73.997 100.054C74.3439 100.742 74.6544 101.357 73.9561 101.702C73.6765 101.841 73.468 101.84 73.2981 101.746C73.043 101.605 72.8728 101.254 72.6758 100.847C72.6474 100.789 72.6184 100.729 72.5886 100.668Z" fill="white"/>
</g>
<path d="M72.5247 55.5027L75.6994 58.7562C76.1455 58.074 76.7752 57.1294 77.3786 56.3161C78.4281 54.873 80.291 52.3017 81.3405 50.9636C82.0752 50.019 82.6262 49.9928 83.4658 50.8324C84.4365 51.7769 86.7455 54.322 88.2935 56.1324C89.8415 57.969 92.0455 60.6715 93.8034 62.8492L96.6895 59.727C94.6692 57.5755 91.993 54.6893 90.2351 52.8002C88.6608 51.121 86.6405 49.022 84.8826 47.3428C82.8361 45.4274 81.288 45.7161 79.74 47.5789C77.9296 49.7304 75.8831 52.3017 74.7024 53.4824C73.889 54.2958 73.3118 54.8468 72.5247 55.5027Z" fill="white"/>
<path d="M102.934 43.4596L100.442 46.1096C102.357 47.4215 105.663 50.2814 107.027 51.7507L109.703 49.022C108.155 47.4215 104.744 44.6928 102.934 43.4596ZM99.6281 60.9339L101.858 64.3973C105.532 63.7676 108.916 62.3245 111.593 60.724C115.817 58.1789 119.306 54.5581 121.274 50.9898L119.254 47.3166C117.575 50.8586 114.164 54.8468 109.677 57.523C107.132 59.0185 103.747 60.3567 99.6281 60.9339Z" fill="white"/>
<path d="M143.142 45.6373L141.017 44.0368C140.466 44.2205 139.443 44.3517 138.288 44.3517C137.134 44.3517 130.417 44.3517 129.027 44.3517C128.266 44.3517 126.639 44.273 125.931 44.168V47.92C126.508 47.8675 127.951 47.7364 129.027 47.7364C130.155 47.7364 136.845 47.7364 137.947 47.7364C137.344 49.5992 135.743 52.1968 134.012 54.1646C131.545 56.8933 127.505 60.0943 123.254 61.6685L125.983 64.5022C130.05 62.5869 134.012 59.3334 136.95 55.9487C139.207 53.325 141.148 49.7567 142.224 47.2641C142.46 46.7131 142.933 45.926 143.142 45.6373ZM137.291 53.771L134.825 56.2111C137.633 58.7562 140.492 61.8784 142.434 64.5809L145.425 61.9834C143.72 59.8844 139.994 55.975 137.291 53.771Z" fill="white"/>
<path d="M148.101 53.22L149.728 56.526C153.874 55.2928 158.124 53.325 161.089 51.567C164.185 49.7042 167.386 47.2378 169.774 44.824L166.94 42.1477C165.235 44.2205 162.243 46.8443 159.567 48.4972C156.629 50.3076 152.798 52.0131 148.101 53.22ZM159.016 50.2027V61.1438C159.016 62.2982 158.911 63.9512 158.806 64.5809H162.978C162.794 63.925 162.742 62.2982 162.742 61.1438V49.3106L159.016 50.2027Z" fill="white"/>
<defs>
<clipPath id="clip0_202_240">
<rect width="87.1147" height="69.9953" fill="white" transform="translate(33.8326) rotate(28.9048)"/>
</clipPath>
</defs>
</svg>
